inDegrees=yes
name=ik_rai_2
DataType=double
version=3
OpenSimVersion=4.5
endheader
time	gndpitch	gndroll	gndyaw	spine_tx	spine_ty	spine_tz	pitch2	roll2	yaw2	aux7jnt_r3	aux7jnt_r1	aux7jnt_r2	aux6jnt_r3	aux6jnt_r1	aux6jnt_r2	aux5jnt_r3	aux5jnt_r1	aux5jnt_r2	aux4jnt_r3	aux4jnt_r1	aux4jnt_r2	aux3jnt_r3	aux3jnt_r1	aux3jnt_r2	pitch1	roll1	yaw1	aux1jnt_r3	aux1jnt_r1	aux1jnt_r2
0	4.21296440140691e-09	8.002416233845703e-10	4.440363815649541e-10	-3.97872216927308e-17	8.44526185968539e-17	-7.30666612219483e-19	1.19195223573577e-06	-7.41742501311171e-34	-1.94073162038987e-33	1.277095802324484e-05	0	0	1.502461967032837e-05	0	0	1.502461967032837e-05	0	0	1.126846475274626e-05	0	0	7.512309835164213e-06	0	0	1.57416137518302e-06	-1.88940466950217e-33	1.27484214121148e-34	5.014717369767992e-05	0	0
0.025	4.21296440140691e-09	8.002416233845703e-10	4.440363815649541e-10	-3.97872216927308e-17	8.44526185968539e-17	-7.30666612219483e-19	-0.001244582797022557	-0.0004000333737827571	3.018938650247766e-05	-0.01333485871358082	-0.003140067927765818	0.0003251881537013792	-0.01568803062093965	-0.003598477660336072	0.000378809383171925	-0.01568803062093965	-0.004950764703093131	0.000378809383171925	-0.01176602296570553	-0.004950764703093131	0.000378809383171925	-0.007844015310469826	-0.004492368102838862	0.0001625940768506896	0.001231991259107502	0.0005056193040382845	1.362415552988895e-05	0.03924685273333525	0.01448492608086728	8.664749933728032e-05
0.05	4.21296440140691e-09	8.002416233845703e-10	4.440363815649541e-10	-3.97872216927308e-17	8.44526185968539e-17	-7.30666612219483e-19	-0.002442238133223556	-1.443972484635328e-05	2.725928029600516e-05	-0.02616692158156398	-0.0001133448353241554	0.0002936262063469644	-0.0307845381675661	-0.0001298917307564004	0.0003420430936460518	-0.0307845381675661	-0.0001787042901342025	0.0003420430936460518	-0.02308840362567617	-0.0001787042901342025	0.0003420430936460518	-0.01539226908378305	-0.0001621578687295774	0.0001468131031734822	0.002318731292972759	4.831699346355574e-05	1.09638121182173e-05	0.07386651886589038	0.00138417990211394	6.972813112441686e-05
0.07500000000000001	4.21296440140691e-09	8.002416233845703e-10	4.440363815649541e-10	-3.97872216927308e-17	8.44526185968539e-17	-7.30666612219483e-19	-0.003561384717659434	-4.771785998198008e-05	2.948909141960649e-05	-0.03815781653763812	-0.0003745620528965441	0.0003176448515182043	-0.04489143883175081	-0.0004292433191796685	0.0003700222437437448	-0.04489143883175081	-0.0005905504700062998	0.0003700222437437448	-0.03366857912381312	-0.0005905504700062998	0.0003700222437437448	-0.02244571941587541	-0.000535870770209854	0.0001588224257591022	0.003348273052756015	9.909520063913036e-05	1.294532424967388e-05	0.1066640517463599	0.00283886838331107	8.233023851495859e-05
0.1	4.21296440140691e-09	8.002416233845703e-10	4.440363815649541e-10	-3.97872216927308e-17	8.44526185968539e-17	-7.30666612219483e-19	-0.004634452629597335	0.0002024316278638679	3.241115125337188e-05	-0.04965500983807841	0.001588990079027305	0.0003491201265228093	-0.05841751544240729	0.001820962295530983	0.0004066875692596121	-0.05841751544240729	0.002505269369254986	0.0004066875692596121	-0.04381313658180706	0.002505269369254986	0.0004066875692596121	-0.02920875772120365	0.002273303798182635	0.0001745600632614046	0.004360487869657204	-0.0002252149783033691	2.277132449371867e-05	0.1389096099512085	-0.006451933869959143	0.0001448220639928
0.125	4.21296440140691e-09	8.002416233845703e-10	4.440363815649541e-10	-3.97872216927308e-17	8.44526185968539e-17	-7.30666612219483e-19	-0.005690594919028873	0.0003047343132970143	7.407529910898411e-05	-0.06097085659789122	0.002392016532583083	0.0007979098796902148	-0.07173024370468932	0.002741220334610914	0.0009294795825462706	-0.07173024370468932	0.003771355044267263	0.0009294795825462706	-0.05379768277851779	0.003771355044267263	0.0009294795825462706	-0.03586512185234466	0.003422161246074281	0.0003989549398451074	0.005384967331266048	-0.0003954980133328964	5.283460725094085e-05	0.1715458760455108	-0.01133018348489324	0.0003360198426040429
0.15	4.21296440140691e-09	8.002416233845703e-10	4.440363815649541e-10	-3.97872216927308e-17	8.44526185968539e-17	-7.30666612219483e-19	-0.006776872892000929	0.0006511254473390428	0.000111891306279386	-0.07260958672328706	0.005111018900268146	0.001205248980508123	-0.08542283381890814	0.005857162251658899	0.001403986023713168	-0.08542283381890814	0.008058249869224987	0.001403986023713168	-0.0640671253641827	0.008058249869224987	0.001403986023713168	-0.04271141690945407	0.007312127893011516	0.0006026244902540615	0.006442514692119584	-0.0008709239185837694	9.751941019862423e-05	0.2052355676103755	-0.02495013240592397	0.0006202082038811735
0.175	4.21296440140691e-09	8.002416233845703e-10	4.440363815649541e-10	-3.97872216927308e-17	8.44526185968539e-17	-7.30666612219483e-19	-0.007822748242154494	0.0004802678712628497	0.0001411297714218501	-0.08381543020728707	0.00376986981118235	0.001520194184708932	-0.09860614677980355	0.004320222558865489	0.001770863467366054	-0.09860614677980355	0.005943737150210477	0.001770863467366054	-0.07395461008485266	0.005943737150210477	0.001770863467366054	-0.04930307338990177	0.005393400168784169	0.0007600970923544662	0.007459007088667065	-0.0007687308107212214	0.0001371630789026851	0.2376173942645267	-0.02202251551799922	0.0008723357394364345
0.2	4.21296440140691e-09	8.002416233845703e-10	4.440363815649541e-10	-3.97872216927308e-17	8.44526185968539e-17	-7.30666612219483e-19	-0.008795554697050446	0.0001422311312478668	0.0001882319364594971	-0.09423839014432625	0.001116445383889122	0.002027560112223531	-0.1108684225312961	0.001279432122275087	0.002361890452379767	-0.1108684225312961	0.001760235296380132	0.002361890452379767	-0.08315131689847291	0.001760235296380132	0.002361890452379767	-0.05543421126564807	0.001597253227165535	0.001013780056111765	0.008340087394753816	-0.0004532946617850449	0.0001749626650051387	0.2656854741016234	-0.01298593549804958	0.001112735197926632
